EMG
version=1
nRows=34
nColumns=17
inDegrees=no
endheader
time	EMG01_right_gast_med	EMG02_right_glut_max	EMG03_left_gast_med	EMG04_left_glut_max	EMG05_right_glut_med	EMG06_right_bic_fem	EMG07_right_rect_fem	EMG08_right_vast_lat	EMG09_right_vast_med	EMG10_right_tens_fasc_lat	EMG11_left_glut_med	EMG12_left_bic_fem	EMG13_left_rect_fem	EMG14_left_vast_lat	EMG15_left_vast_med	EMG16_left_tens_fasc_lat
      2.52000000	    -15.77134609	      1.62076521	    163.72055054	    -14.23728085	    -12.24907303	     66.50769043	     11.97039413	    -19.62287521	     -8.29550838	    -23.90082932	     -8.90329552	     -5.55176830	      2.09363461	    -35.65889359	     10.28534126	     -3.28134203
      2.53000000	    -12.53393078	     -0.46320105	    297.59707642	      1.76080751	   -105.57019806	      1.95460129	      4.24186611	     -3.76415491	    -15.87259007	    -13.49434090	     -7.66383648	      3.61705589	     -9.25986958	      9.97799301	     13.99471569	     13.19115257
      2.54000000	     -9.65541935	    -41.96156693	    -98.51820374	    -11.85114098	   -165.56015015	     47.68159103	      8.71489525	    -11.03419685	    -29.37306595	    -12.82358932	     -1.04901588	      4.67704248	      0.25113547	      5.17152977	      6.46389723	     -0.36439300
      2.55000000	     -8.84174061	     -8.57388973	   -177.71374512	    -10.15463829	   -218.61863708	     71.15995026	    -24.96345711	    -17.75044632	    -37.27725220	    -28.17504120	     -8.03871346	     -3.62127066	     13.45585060	     -2.96957111	     -5.90591812	     -1.30340552
      2.56000000	      2.89964294	    -22.16707611	   -170.50357056	    -16.46488953	   -223.51744080	    -31.25293159	    -23.76410484	     -0.35036278	    -44.43846512	     -5.92747450	     -1.49868345	     -2.75007296	    -24.77479362	    -12.31136513	     12.03311443	    -34.30388260
      2.57000000	      9.44599819	    -68.56651306	     12.61977577	    -19.60589981	     44.22674179	    -35.56546783	    -12.76257515	     15.70946598	    -35.48452377	     15.49044609	     -5.55064440	    -10.86672783	      8.20819473	     -1.64358628	     -9.56145668	    -30.47646332
      2.58000000	     28.10397148	    -29.84643173	     69.02864075	    -16.33789062	     26.79970551	    132.74822998	    -35.79084778	     -0.57955599	     79.45517731	     38.42372131	    -11.73724461	      1.05496490	    -17.35370064	     -9.55967712	      1.32895756	    -46.46096039
      2.59000000	     22.87705612	     12.29775143	    -85.91510773	    -11.64263153	     56.70149994	   -144.52302551	    -21.20307159	     16.81864929	    153.59501648	     46.82529449	     -0.74548912	     -2.75116801	     -2.44366884	     -2.43766975	      7.24560165	    -44.60723877
      2.60000000	      1.90777302	     29.30005074	     14.98905754	     -3.52866673	      3.98409033	     16.64553070	    -11.38717651	     21.32619095	    239.39578247	     43.86296844	     -5.55926228	     -4.19477129	     -7.05942726	      0.81672156	     -7.11351061	    -40.67348480
      2.61000000	      8.22455597	     24.54457855	      9.73256493	      5.20853806	    -80.16962433	     69.39324951	    -16.24477577	     32.11437988	     14.95780182	     32.54298019	     -0.95114267	      1.28394985	     -3.15534592	     -1.58064508	    -25.20497131	    -35.62819672
      2.62000000	     -4.69175482	     18.31119156	    -37.03265381	     12.83143806	    -72.20239258	     31.89344788	      1.59272003	     22.81300545	    -43.39461899	    -37.02367020	     -3.84177661	    -10.54459572	      1.17905402	     -4.48165751	    -47.79632950	    -38.49740982
      2.63000000	    -31.98458099	      5.18614244	    -11.28684616	      2.24411225	    385.35223389	     20.05253792	     14.67611313	    -19.16689682	    -59.25047302	    -66.65795135	     -4.02768040	    -13.14770508	      5.66562510	      2.62659788	    -46.32888412	    -53.82299042
      2.64000000	    -84.41574860	    -20.69396019	     -9.62808800	    -21.34001923	    223.45950317	    -79.27928925	     -4.07749224	    -66.32275391	      7.43337536	   -102.05823517	     -0.79172754	     35.39225006	    -20.85041428	     -3.06541395	      1.04538536	    -68.07396698
      2.65000000	    -37.35691071	    -32.79258728	     -5.00852013	    -17.07917213	   -169.64935303	    -85.25151062	     28.72866249	    -35.22214890	    -40.93265915	   -199.33221436	     -5.91628933	    -21.09474945	     -0.07505322	    -11.21558857	     -0.67231786	    -52.37950897
      2.66000000	     89.73638153	    -43.71826172	     -7.75290394	      2.00771046	   -363.56234741	    -51.07287216	     23.78362274	    -49.98645401	     -5.07945490	    -79.54924011	     -0.25323212	      1.73018265	      1.82635403	    -10.83825874	     -9.91696548	    -32.69189453
      2.67000000	     54.15356064	     67.16631317	     -6.89827108	      5.52891493	   -210.58956909	    -18.54029846	     18.51431656	    -18.69249725	   -230.81681824	     40.85599518	      6.69958496	      3.35116529	     11.26152134	    -10.98401260	      1.96585369	    -23.45721436
      2.68000000	    -36.14265823	    158.20045471	     -8.41034603	     -2.44278288	     80.12153625	     15.14396286	     42.21614075	     14.21380043	   -183.47541809	     60.61149216	     -6.12461090	     -8.89991474	     -4.02171326	     -2.83609867	     35.87338638	    -22.10663605
      2.69000000	    -33.44004822	     80.86597443	     -8.99410725	    -20.66023254	      5.50632668	     34.36011124	    -12.21676350	     30.38887024	      4.67863178	    -30.71466446	     -5.98400307	     -1.35015726	      3.98724627	     -1.17381048	     50.98064423	    -11.32523918
      2.70000000	    -54.21109009	    -42.00055313	    -10.16841221	    -35.44043732	    -38.30157852	     65.18752289	    -35.49326324	     23.04147530	    268.09732056	    -54.35126495	     -4.85847950	     -2.94428802	     -5.35434723	     -1.18437052	     55.37207031	    -24.62484169
      2.71000000	    -54.80729675	    -94.12675476	     -7.71975994	    -21.61222839	     73.50731659	     16.15232849	    -26.65810013	     18.63574409	    298.42352295	    -22.41978455	     -0.49401450	     -1.08779192	     -6.17532778	      3.30336809	     50.93134689	    -28.29895020
      2.72000000	     19.56363678	   -103.07146454	     20.94666100	     15.58200741	    155.44575500	     -6.68058014	    -33.56204987	     33.85205841	     83.06345367	     35.23326874	     -2.17536545	      1.08102131	    -11.61491013	     22.39666367	     86.21937561	    -21.87356186
      2.73000000	     57.28265381	    -55.23884583	      0.46446562	      5.49279594	    176.79576111	    -23.10727119	    -32.68160248	     21.21672058	     73.12714386	     75.64990234	     -3.07614613	    -16.99304581	    -20.00923157	     27.42053413	     86.77493286	    -10.93203545
      2.74000000	     68.48364258	    -35.38275528	     -0.57725757	    -10.16071224	     79.22734833	    -57.30117035	    -12.46805668	    -24.81178665	     -2.55531740	     78.93365479	      1.36672735	     -7.87867260	    -18.04090309	     31.82204437	     80.04666901	    -29.14223099
      2.75000000	     -5.82488441	     20.98291016	      7.92302036	    118.93041992	     32.13857651	      9.83747482	      8.71547794	    -40.18622971	   -149.52571106	     32.77497864	     -4.68466806	    -13.44875431	    -13.32536697	      5.37168121	     58.80548859	    -41.71005630
      2.76000000	    159.30029297	     44.14151382	     -9.35436821	    253.96400452	     61.94600296	    -90.17398071	     33.73355865	    -27.01707458	   -345.12091064	     15.64643097	     13.85377026	     -9.31043434	    -13.16828918	    -40.13478470	     49.93894196	    -93.32416534
      2.77000000	    -64.88320160	     42.49714279	      0.45749164	    259.96536255	     45.75381851	     28.22927094	     36.14570618	    -31.19051552	   -122.35368347	     94.92282104	      6.47442102	     -9.15759659	     -8.35342884	    -48.89612198	     12.94542599	   -107.24719238
      2.78000000	    -33.16336823	     15.02899170	      9.99627686	    440.87884521	     28.68380356	    -12.26847267	     29.31296730	    -16.25263214	     14.54745865	    495.86273193	      4.09307194	     -6.71431494	     -5.00772476	    -20.50855255	    -38.86217499	    -23.77954865
      2.79000000	    -26.50902748	    -20.20030975	     -8.68818855	    460.54867554	     60.19646072	    -24.59366035	      9.33443737	      2.03086734	     81.18535614	    386.13778687	     -2.08985424	    -11.68413544	      7.26138353	     -5.63334846	   -121.05093384	    -78.35713196
      2.80000000	    241.28083801	    -23.21468544	     -1.63004935	     78.68925476	     46.16746902	    -11.96553135	     -0.16839218	     -6.00071812	    133.98043823	    127.80010223	      1.60124755	     -3.58804584	      9.05364037	     -7.39613056	   -148.84077454	   -188.52970886
      2.81000000	   -100.12002563	     16.81667519	     -5.32815218	    -32.55133820	    141.07147217	     -8.38996124	    -10.48378658	     -5.43823242	    118.23822784	   -299.87091064	      4.26644468	     -0.88840842	      6.53821039	     -2.74332809	   -110.29792023	   -105.76215363
      2.82000000	    -20.53969955	     46.42372131	    -20.64392853	     -6.04879141	     59.11681366	    -14.29434776	    -21.65392113	     -0.30103177	     52.47421265	   -577.67547607	     -4.22767305	    -10.16653252	      9.97397614	     -3.61735725	    -38.45650101	    -56.58916092
      2.83000000	    287.94973755	     67.19107056	      9.63138008	    -58.76119614	    -12.51684856	     22.72933960	    -15.11373425	     -1.51653886	      8.71101856	   -294.96136475	     -8.34692764	     -6.61175442	      8.42557430	     -6.76788282	      6.47490597	   -102.32418060
      2.84000000	    -53.04840088	     67.52365112	     -0.88834184	   -231.64671326	    -28.22588921	    -19.86471939	     -5.48871708	     -3.03686643	    -20.17259216	   -164.77847290	     -4.16242361	     -9.34541035	      4.73568058	     -7.12021828	     18.49447441	    -29.15698051
      2.85000000	    -26.60910797	     29.63447762	      7.18002224	   -382.01336670	   -121.40823364	     30.38162613	      0.25534442	    -14.00428104	    -14.53571510	    -52.24758148	     -7.40747261	    -13.37771797	      3.86996460	     -9.91616440	     44.83366013	     34.90691757
